<mxfile host="app.diagrams.net" modified="2024-02-01T11:31:43.667Z" agent="Mozilla/5.0 (Windows NT 10.0; Win64; x64) AppleWebKit/537.36 (KHTML, like Gecko) Chrome/120.0.0.0 YaBrowser/24.1.0.0 Safari/537.36" version="23.1.0" etag="-o5r2ZQNBRk5Ul1B325P" type="github">
  <diagram name="Страница — 1" id="ABY4PUOsnD8A4WuwLvSU">
    <mxGraphModel>
      <root>
        <mxCell id="0" />
        <mxCell id="1" parent="0" />
      </root>
    </mxGraphModel>
  </diagram>
</mxfile>
